<?xml version="1.0" encoding="UTF-8"?>
<svg version="1.1" xmlns="http://www.w3.org/2000/svg" width="80" height="79">
<path d="M0 0 C26.4 0 52.8 0 80 0 C80 26.07 80 52.14 80 79 C53.6 79 27.2 79 0 79 C0 52.93 0 26.86 0 0 Z " fill="#165DFC" transform="translate(0,0)"/>
<path d="M0 0 C2.97 0 5.94 0 9 0 C9.24234375 0.82242187 9.4846875 1.64484375 9.734375 2.4921875 C11.62819696 8.80007142 13.65334886 14.92813851 16.265625 20.9765625 C17 23 17 23 17 26 C14.69 26 12.38 26 10 26 C9.505 23.525 9.505 23.525 9 21 C6.03 21 3.06 21 0 21 C-0.33 22.65 -0.66 24.3 -1 26 C-3.31 26 -5.62 26 -8 26 C-6.62912843 19.03140287 -4.49932868 12.63756142 -2 6 C-1.32318977 4.00340982 -0.65038501 2.00535378 0 0 Z " fill="#ECF1FE" transform="translate(26,29)"/>
<path d="M0 0 C5.28 0 10.56 0 16 0 C16 1.65 16 3.3 16 5 C13.03 5 10.06 5 7 5 C7 6.98 7 8.96 7 11 C9.64 11 12.28 11 15 11 C15 12.65 15 14.3 15 16 C12.36 16 9.72 16 7 16 C7 17.65 7 19.3 7 21 C9.97 21 12.94 21 16 21 C16 22.65 16 24.3 16 26 C10.72 26 5.44 26 0 26 C0 17.42 0 8.84 0 0 Z " fill="#EDF2FE" transform="translate(45,29)"/>
<path d="M0 0 C5.28 0 10.56 0 16 0 C16 4.95 16 9.9 16 15 C14.97430056 13.46145084 13.95234814 11.91751827 13.02734375 10.31640625 C9.70683803 4.97265332 5.84983619 3.05190333 0 1 C0 0.67 0 0.34 0 0 Z " fill="#F7F9FE" transform="translate(64,0)"/>
<path d="M0 0 C4.95 0 9.9 0 15 0 C13.45620382 1.02919745 11.9083859 2.05484092 10.31640625 3.0078125 C5.34809679 6.17248178 3.16849931 9.57201726 1 15 C0.67 15 0.34 15 0 15 C0 10.05 0 5.1 0 0 Z " fill="#FAFBFE" transform="translate(0,0)"/>
<path d="M0 0 C0.33 0 0.66 0 1 0 C1 4.95 1 9.9 1 15 C-3.29 15 -7.58 15 -12 15 C-10.68 14.01 -9.36 13.02 -8 12 C-3.77392397 8.2892991 -1.92364507 5.16346834 0 0 Z " fill="#F4F7FE" transform="translate(79,64)"/>
<path d="M0 0 C2 3 2 3 3.75 6.4375 C5.86789435 10.2320607 8.29932161 11.8132355 12 14 C12 14.33 12 14.66 12 15 C8.04 15 4.08 15 0 15 C0 10.05 0 5.1 0 0 Z " fill="#F6F9FE" transform="translate(0,64)"/>
<path d="M0 0 C2.5654594 2.5654594 2.54046087 4.47686668 3 8 C1.35 8 -0.3 8 -2 8 C-1.125 2.25 -1.125 2.25 0 0 Z " fill="#2065FC" transform="translate(30,37)"/>
</svg>
